<svg width="56" height="57" viewBox="0 0 56 57" fill="none" xmlns="http://www.w3.org/2000/svg">
<circle cx="28" cy="28.7915" r="28" fill="#BBE4F4"/>
<path d="M18 26.3915C18 25.2092 18 24.618 18.2071 24.1664C18.3892 23.7692 18.6799 23.4462 19.0374 23.2438C19.4439 23.0137 19.9759 23.0137 21.04 23.0137H33.96C35.0241 23.0137 35.5561 23.0137 35.9626 23.2438C36.3201 23.4462 36.6108 23.7692 36.7929 24.1664C37 24.618 37 25.2092 37 26.3915V34.4137C37 35.5961 37 36.1872 36.7929 36.6388C36.6108 37.036 36.3201 37.359 35.9626 37.5614C35.5561 37.7915 35.0241 37.7915 33.96 37.7915H21.04C19.9759 37.7915 19.4439 37.7915 19.0374 37.5614C18.6799 37.359 18.3892 37.036 18.2071 36.6388C18 36.1872 18 35.5961 18 34.4137V26.3915Z" fill="#BBE4F4"/>
<path d="M23.7 37.7915V23.0137C23.7 22.0321 23.7 21.5413 23.7971 21.1386C24.0606 20.0458 24.8289 19.1922 25.8124 18.8994C26.1748 18.7915 26.6165 18.7915 27.5 18.7915C28.3835 18.7915 28.8252 18.7915 29.1876 18.8994C30.1711 19.1922 30.9394 20.0458 31.2029 21.1386C31.3 21.5413 31.3 22.0321 31.3 23.0137V37.7915M21.04 37.7915H33.96C35.0241 37.7915 35.5561 37.7915 35.9626 37.5614C36.3201 37.359 36.6108 37.036 36.7929 36.6388C37 36.1872 37 35.5961 37 34.4137V26.3915C37 25.2092 37 24.618 36.7929 24.1664C36.6108 23.7692 36.3201 23.4462 35.9626 23.2438C35.5561 23.0137 35.0241 23.0137 33.96 23.0137H21.04C19.9759 23.0137 19.4439 23.0137 19.0374 23.2438C18.6799 23.4462 18.3892 23.7692 18.2071 24.1664C18 24.618 18 25.2092 18 26.3915V34.4137C18 35.5961 18 36.1872 18.2071 36.6388C18.3892 37.036 18.6799 37.359 19.0374 37.5614C19.4439 37.7915 19.9759 37.7915 21.04 37.7915Z" stroke="black" stroke-width="2" stroke-linecap="round" stroke-linejoin="round"/>
</svg>
