<svg width="56" height="57" viewBox="0 0 56 57" fill="none" xmlns="http://www.w3.org/2000/svg">
<circle cx="28" cy="28.7915" r="28" fill="#E2D2FE"/>
<path d="M27 40.7915C33.0751 40.7915 38 35.8666 38 29.7915C38 23.7164 33.0751 18.7915 27 18.7915C20.9249 18.7915 16 23.7164 16 29.7915C16 35.8666 20.9249 40.7915 27 40.7915Z" fill="#E2D2FE"/>
<path d="M27 23.1915V29.7915L31.4 31.9915" fill="#E2D2FE"/>
<path d="M27 23.1915V29.7915L31.4 31.9915M38 29.7915C38 35.8666 33.0751 40.7915 27 40.7915C20.9249 40.7915 16 35.8666 16 29.7915C16 23.7164 20.9249 18.7915 27 18.7915C33.0751 18.7915 38 23.7164 38 29.7915Z" stroke="black" stroke-width="1.7" stroke-linecap="round" stroke-linejoin="round"/>
</svg>
