 <svg width="365" height="151" fill="none" xmlns="http://www.w3.org/2000/svg">
    <path
      d="M176.51 55.6899H163.5C159.54 55.6899 156.15 60.0499 154.77 66.1999C153.26 60.0499 149.56 55.6899 145.23 55.6899H131.02C125.36 55.6899 120.75 63.1699 120.75 72.3599C120.75 81.5499 125.36 89.0299 131.02 89.0299H145.23C149.55 89.0299 153.25 84.6699 154.77 78.5199C156.16 84.6699 159.55 89.0299 163.5 89.0299H176.51C181.7 89.0299 185.92 81.5499 185.92 72.3599C185.92 63.1699 181.69 55.6899 176.51 55.6899ZM176.51 81.8299H163.5C161.84 81.8299 160.35 80.4799 159.37 78.3599H154.81H154.73H149.74C148.67 80.4799 147.05 81.8299 145.23 81.8299H131.02C127.8 81.8299 125.19 77.5799 125.19 72.3599C125.19 67.1399 127.81 62.8899 131.02 62.8899H145.23C147.04 62.8899 148.67 64.2399 149.74 66.3599H154.73H154.81H159.37C160.35 64.2399 161.84 62.8899 163.5 62.8899H176.51C179.46 62.8899 181.85 67.1399 181.85 72.3599C181.85 77.5799 179.45 81.8299 176.51 81.8299Z"
      fill="#FFFFFF"
      stroke="#FF5623"
      stroke-miterlimit="10"
    />
    <path
      d="M169 68.7598H138.2C136.21 68.7598 134.6 70.3698 134.6 72.3598C134.6 74.3498 136.21 75.9598 138.2 75.9598H169C170.99 75.9598 172.6 74.3498 172.6 72.3598C172.6 70.3698 170.99 68.7598 169 68.7598Z"
      fill="#FFFFFF"
        stroke="#FF5623"
      stroke-miterlimit="10"
    />
    <path
      d="M21.1363 98.983H44.1363V110.083H7.13633V40.283H21.1363V98.983ZM60.1348 48.083C57.6681 48.083 55.6014 47.3163 53.9348 45.783C52.3348 44.183 51.5348 42.2163 51.5348 39.883C51.5348 37.5497 52.3348 35.6163 53.9348 34.083C55.6014 32.483 57.6681 31.683 60.1348 31.683C62.6014 31.683 64.6348 32.483 66.2348 34.083C67.9014 35.6163 68.7348 37.5497 68.7348 39.883C68.7348 42.2163 67.9014 44.183 66.2348 45.783C64.6348 47.3163 62.6014 48.083 60.1348 48.083ZM67.0348 54.683V110.083H53.0348V54.683H67.0348ZM77.2668 82.183C77.2668 76.583 78.3668 71.6163 80.5668 67.283C82.8335 62.9497 85.8668 59.6163 89.6668 57.283C93.5335 54.9497 97.8335 53.783 102.567 53.783C106.7 53.783 110.3 54.6163 113.367 56.283C116.5 57.9497 119 60.0497 120.867 62.583V54.683H134.967V110.083H120.867V101.983C119.067 104.583 116.567 106.75 113.367 108.483C110.233 110.15 106.6 110.983 102.467 110.983C97.8001 110.983 93.5335 109.783 89.6668 107.383C85.8668 104.983 82.8335 101.616 80.5668 97.283C78.3668 92.883 77.2668 87.8497 77.2668 82.183ZM120.867 82.383C120.867 78.983 120.2 76.083 118.867 73.683C117.533 71.2163 115.733 69.3497 113.467 68.083C111.2 66.7497 108.767 66.083 106.167 66.083C103.567 66.083 101.167 66.7163 98.9668 67.983C96.7668 69.2497 94.9668 71.1163 93.5668 73.583C92.2335 75.983 91.5668 78.8497 91.5668 82.183C91.5668 85.5163 92.2335 88.4497 93.5668 90.983C94.9668 93.4497 96.7668 95.3497 98.9668 96.683C101.233 98.0163 103.633 98.683 106.167 98.683C108.767 98.683 111.2 98.0497 113.467 96.783C115.733 95.4497 117.533 93.583 118.867 91.183C120.2 88.7163 120.867 85.783 120.867 82.383Z"
      fill="#FFFFFF"
         stroke="#FF5623"
    />
    <path
      d="M21.1363 98.983H20.6363V99.483H21.1363V98.983ZM44.1363 98.983H44.6363V98.483H44.1363V98.983ZM44.1363 110.083V110.583H44.6363V110.083H44.1363ZM7.13633 110.083H6.63633V110.583H7.13633V110.083ZM7.13633 40.283V39.783H6.63633V40.283H7.13633ZM21.1363 40.283H21.6363V39.783H21.1363V40.283ZM21.1363 99.483H44.1363V98.483H21.1363V99.483ZM43.6363 98.983V110.083H44.6363V98.983H43.6363ZM44.1363 109.583H7.13633V110.583H44.1363V109.583ZM7.63633 110.083V40.283H6.63633V110.083H7.63633ZM7.13633 40.783H21.1363V39.783H7.13633V40.783ZM20.6363 40.283V98.983H21.6363V40.283H20.6363ZM53.9348 45.783L53.5812 46.1366L53.5886 46.1439L53.5962 46.151L53.9348 45.783ZM53.9348 34.083L54.2807 34.444L54.281 34.4437L53.9348 34.083ZM66.2348 34.083L65.8812 34.4366L65.8886 34.4439L65.8962 34.451L66.2348 34.083ZM66.2348 45.783L66.5807 46.144L66.581 46.1437L66.2348 45.783ZM67.0348 54.683H67.5348V54.183H67.0348V54.683ZM67.0348 110.083V110.583H67.5348V110.083H67.0348ZM53.0348 110.083H52.5348V110.583H53.0348V110.083ZM53.0348 54.683V54.183H52.5348V54.683H53.0348ZM60.1348 47.583C57.7813 47.583 55.8391 46.8556 54.2733 45.415L53.5962 46.151C55.3638 47.7771 57.5549 48.583 60.1348 48.583V47.583ZM54.2883 45.4295C52.7853 43.9264 52.0348 42.0884 52.0348 39.883H51.0348C51.0348 42.3443 51.8842 44.4396 53.5812 46.1366L54.2883 45.4295ZM52.0348 39.883C52.0348 37.6779 52.7848 35.8776 54.2807 34.444L53.5888 33.722C51.8847 35.3551 51.0348 37.4214 51.0348 39.883H52.0348ZM54.281 34.4437C55.8479 32.9395 57.7876 32.183 60.1348 32.183V31.183C57.5486 31.183 55.355 32.0265 53.5885 33.7223L54.281 34.4437ZM60.1348 32.183C62.482 32.183 64.3839 32.9392 65.8812 34.4366L66.5883 33.7294C64.8856 32.0268 62.7209 31.183 60.1348 31.183V32.183ZM65.8962 34.451C67.4565 35.8864 68.2348 37.6847 68.2348 39.883H69.2348C69.2348 37.4146 68.3464 35.3463 66.5733 33.715L65.8962 34.451ZM68.2348 39.883C68.2348 42.0817 67.4559 43.9177 65.8885 45.4223L66.581 46.1437C68.347 44.4484 69.2348 42.351 69.2348 39.883H68.2348ZM65.8888 45.422C64.3927 46.8557 62.4884 47.583 60.1348 47.583V48.583C62.7145 48.583 64.8768 47.7769 66.5807 46.144L65.8888 45.422ZM66.5348 54.683V110.083H67.5348V54.683H66.5348ZM67.0348 109.583H53.0348V110.583H67.0348V109.583ZM53.5348 110.083V54.683H52.5348V110.083H53.5348ZM53.0348 55.183H67.0348V54.183H53.0348V55.183ZM80.5668 67.283L80.1237 67.0512L80.121 67.0567L80.5668 67.283ZM89.6668 57.283L89.4085 56.8549L89.4052 56.8569L89.6668 57.283ZM113.367 56.283L113.128 56.7223L113.132 56.7244L113.367 56.283ZM120.867 62.583L120.464 62.8796L121.367 64.1045V62.583H120.867ZM120.867 54.683V54.183H120.367V54.683H120.867ZM134.967 54.683H135.467V54.183H134.967V54.683ZM134.967 110.083V110.583H135.467V110.083H134.967ZM120.867 110.083H120.367V110.583H120.867V110.083ZM120.867 101.983H121.367V100.382L120.456 101.698L120.867 101.983ZM113.367 108.483L113.602 108.924L113.605 108.923L113.367 108.483ZM89.6668 107.383L89.3998 107.806L89.4031 107.808L89.6668 107.383ZM80.5668 97.283L80.1195 97.5067L80.1237 97.5148L80.5668 97.283ZM118.867 73.683L118.427 73.9208L118.43 73.9258L118.867 73.683ZM113.467 68.083L113.213 68.5141L113.223 68.5195L113.467 68.083ZM98.9668 67.983L98.7173 67.5497L98.7173 67.5497L98.9668 67.983ZM93.5668 73.583L93.1319 73.3362L93.1297 73.3402L93.5668 73.583ZM93.5668 90.983L93.1243 91.2159L93.128 91.2229L93.132 91.2298L93.5668 90.983ZM98.9668 96.683L98.7076 97.1106L98.7133 97.114L98.9668 96.683ZM113.467 96.783L113.711 97.2196L113.72 97.214L113.467 96.783ZM118.867 91.183L119.304 91.4258L119.307 91.4208L118.867 91.183ZM77.7668 82.183C77.7668 76.6496 78.8533 71.7626 81.0126 67.5094L80.121 67.0567C77.8803 71.4701 76.7668 76.5164 76.7668 82.183H77.7668ZM81.0098 67.5148C83.2389 63.2534 86.2127 59.9907 89.9284 57.7091L89.4052 56.8569C85.5209 59.242 82.4281 62.6459 80.1237 67.0513L81.0098 67.5148ZM89.9251 57.7111C93.71 55.4271 97.9199 54.283 102.567 54.283V53.283C97.747 53.283 93.3569 54.4722 89.4085 56.8549L89.9251 57.7111ZM102.567 54.283C106.632 54.283 110.147 55.1022 113.128 56.7223L113.606 55.8437C110.453 54.1305 106.768 53.283 102.567 53.283V54.283ZM113.132 56.7244C116.208 58.3605 118.647 60.4138 120.464 62.8796L121.269 62.2864C119.353 59.6856 116.792 57.5388 113.602 55.8416L113.132 56.7244ZM121.367 62.583V54.683H120.367V62.583H121.367ZM120.867 55.183H134.967V54.183H120.867V55.183ZM134.467 54.683V110.083H135.467V54.683H134.467ZM134.967 109.583H120.867V110.583H134.967V109.583ZM121.367 110.083V101.983H120.367V110.083H121.367ZM120.456 101.698C118.707 104.225 116.27 106.342 113.129 108.043L113.605 108.923C116.864 107.158 119.427 104.941 121.278 102.268L120.456 101.698ZM113.132 108.042C110.082 109.664 106.532 110.483 102.467 110.483V111.483C106.668 111.483 110.385 110.635 113.602 108.924L113.132 108.042ZM102.467 110.483C97.8908 110.483 93.7159 109.308 89.9305 106.958L89.4031 107.808C93.351 110.258 97.7094 111.483 102.467 111.483V110.483ZM89.9338 106.96C86.2148 104.611 83.2394 101.314 81.0098 97.0513L80.1237 97.5148C82.4275 101.919 85.5188 105.355 89.3998 107.806L89.9338 106.96ZM81.014 97.0594C78.8536 92.7387 77.7668 87.7839 77.7668 82.183H76.7668C76.7668 87.9155 77.8799 93.0273 80.1196 97.5066L81.014 97.0594ZM121.367 82.383C121.367 78.918 120.687 75.9302 119.304 73.4402L118.43 73.9258C119.713 76.2358 120.367 79.048 120.367 82.383H121.367ZM119.307 73.4452C117.932 70.902 116.067 68.9632 113.711 67.6465L113.223 68.5195C115.4 69.7361 117.135 71.5306 118.427 73.9208L119.307 73.4452ZM113.72 67.652C111.378 66.2741 108.857 65.583 106.167 65.583V66.583C108.677 66.583 111.023 67.2253 113.213 68.514L113.72 67.652ZM106.167 65.583C103.481 65.583 100.995 66.2382 98.7173 67.5497L99.2163 68.4163C101.338 67.1944 103.652 66.583 106.167 66.583V65.583ZM98.7173 67.5497C96.4312 68.8659 94.5707 70.8013 93.132 73.3362L94.0016 73.8298C95.3629 71.4314 97.1024 69.6334 99.2163 68.4163L98.7173 67.5497ZM93.1297 73.3402C91.7471 75.8288 91.0668 78.7828 91.0668 82.183H92.0668C92.0668 78.9166 92.7198 76.1372 94.0039 73.8258L93.1297 73.3402ZM91.0668 82.183C91.0668 85.5841 91.7474 88.5998 93.1243 91.2159L94.0093 90.7501C92.7195 88.2996 92.0668 85.4486 92.0668 82.183H91.0668ZM93.132 91.2298C94.5697 93.763 96.4273 95.7286 98.7076 97.1106L99.2259 96.2554C97.1063 94.9708 95.3639 93.1364 94.0016 90.7362L93.132 91.2298ZM98.7133 97.114C101.054 98.4907 103.541 99.183 106.167 99.183V98.183C103.726 98.183 101.413 97.542 99.2203 96.252L98.7133 97.114ZM106.167 99.183C108.852 99.183 111.369 98.5279 113.711 97.2195L113.223 96.3465C111.031 97.5715 108.682 98.183 106.167 98.183V99.183ZM113.72 97.214C116.067 95.8334 117.929 93.9002 119.304 91.4258L118.43 90.9402C117.138 93.2658 115.4 95.066 113.213 96.352L113.72 97.214ZM119.307 91.4208C120.687 88.8671 121.367 85.8485 121.367 82.383H120.367C120.367 85.7175 119.713 88.5656 118.427 90.9452L119.307 91.4208Z"
      fill="#FFFFFF"
       stroke="#FF5623"
    />
    <path
      d="M186.483 99.3893H209.483V110.489H172.483V40.6893H186.483V99.3893ZM225.481 48.4893C223.014 48.4893 220.948 47.7226 219.281 46.1893C217.681 44.5893 216.881 42.6226 216.881 40.2893C216.881 37.9559 217.681 36.0226 219.281 34.4893C220.948 32.8893 223.014 32.0893 225.481 32.0893C227.948 32.0893 229.981 32.8893 231.581 34.4893C233.248 36.0226 234.081 37.9559 234.081 40.2893C234.081 42.6226 233.248 44.5893 231.581 46.1893C229.981 47.7226 227.948 48.4893 225.481 48.4893ZM232.381 55.0893V110.489H218.381V55.0893H232.381ZM276.913 54.2893C283.513 54.2893 288.846 56.3893 292.913 60.5893C296.98 64.7226 299.013 70.5226 299.013 77.9893V110.489H285.013V79.8893C285.013 75.4893 283.913 72.1226 281.713 69.7893C279.513 67.3893 276.513 66.1893 272.713 66.1893C268.846 66.1893 265.78 67.3893 263.513 69.7893C261.313 72.1226 260.213 75.4893 260.213 79.8893V110.489H246.213V55.0893H260.213V61.9893C262.08 59.5893 264.446 57.7226 267.313 56.3893C270.246 54.9893 273.446 54.2893 276.913 54.2893ZM345.126 110.489L326.326 86.8893V110.489H312.326V36.4893H326.326V78.5893L344.926 55.0893H363.126L338.726 82.8893L363.326 110.489H345.126Z"
      fill="#FFFFFF"
      stroke="#FF5623"
    />
    <path
      d="M186.483 99.3893H185.983V99.8893H186.483V99.3893ZM209.483 99.3893H209.983V98.8893H209.483V99.3893ZM209.483 110.489V110.989H209.983V110.489H209.483ZM172.483 110.489H171.983V110.989H172.483V110.489ZM172.483 40.6893V40.1893H171.983V40.6893H172.483ZM186.483 40.6893H186.983V40.1893H186.483V40.6893ZM186.483 99.8893H209.483V98.8893H186.483V99.8893ZM208.983 99.3893V110.489H209.983V99.3893H208.983ZM209.483 109.989H172.483V110.989H209.483V109.989ZM172.983 110.489V40.6893H171.983V110.489H172.983ZM172.483 41.1893H186.483V40.1893H172.483V41.1893ZM185.983 40.6893V99.3893H186.983V40.6893H185.983ZM219.281 46.1893L218.927 46.5428L218.935 46.5502L218.942 46.5572L219.281 46.1893ZM219.281 34.4893L219.627 34.8502L219.627 34.8499L219.281 34.4893ZM231.581 34.4893L231.227 34.8428L231.235 34.8502L231.242 34.8572L231.581 34.4893ZM231.581 46.1893L231.927 46.5503L231.927 46.55L231.581 46.1893ZM232.381 55.0893H232.881V54.5893H232.381V55.0893ZM232.381 110.489V110.989H232.881V110.489H232.381ZM218.381 110.489H217.881V110.989H218.381V110.489ZM218.381 55.0893V54.5893H217.881V55.0893H218.381ZM225.481 47.9893C223.128 47.9893 221.185 47.2618 219.619 45.8213L218.942 46.5572C220.71 48.1834 222.901 48.9893 225.481 48.9893V47.9893ZM219.635 45.8357C218.131 44.3327 217.381 42.4946 217.381 40.2893H216.381C216.381 42.7506 217.23 44.8458 218.927 46.5428L219.635 45.8357ZM217.381 40.2893C217.381 38.0841 218.131 36.2838 219.627 34.8502L218.935 34.1283C217.231 35.7613 216.381 37.8277 216.381 40.2893H217.381ZM219.627 34.8499C221.194 33.3458 223.134 32.5893 225.481 32.5893V31.5893C222.895 31.5893 220.701 32.4327 218.935 34.1286L219.627 34.8499ZM225.481 32.5893C227.828 32.5893 229.73 33.3455 231.227 34.8428L231.935 34.1357C230.232 32.433 228.067 31.5893 225.481 31.5893V32.5893ZM231.242 34.8572C232.803 36.2927 233.581 38.091 233.581 40.2893H234.581C234.581 37.8209 233.693 35.7525 231.919 34.1213L231.242 34.8572ZM233.581 40.2893C233.581 42.488 232.802 44.3239 231.235 45.8286L231.927 46.55C233.693 44.8546 234.581 42.7572 234.581 40.2893H233.581ZM231.235 45.8283C229.739 47.262 227.835 47.9893 225.481 47.9893V48.9893C228.061 48.9893 230.223 48.1832 231.927 46.5503L231.235 45.8283ZM231.881 55.0893V110.489H232.881V55.0893H231.881ZM232.381 109.989H218.381V110.989H232.381V109.989ZM218.881 110.489V55.0893H217.881V110.489H218.881ZM218.381 55.5893H232.381V54.5893H218.381V55.5893ZM292.913 60.5893L292.554 60.9371L292.557 60.9399L292.913 60.5893ZM299.013 110.489V110.989H299.513V110.489H299.013ZM285.013 110.489H284.513V110.989H285.013V110.489ZM281.713 69.7893L281.344 70.1272L281.349 70.1323L281.713 69.7893ZM263.513 69.7893L263.149 69.4459L263.149 69.4463L263.513 69.7893ZM260.213 110.489V110.989H260.713V110.489H260.213ZM246.213 110.489H245.713V110.989H246.213V110.489ZM246.213 55.0893V54.5893H245.713V55.0893H246.213ZM260.213 55.0893H260.713V54.5893H260.213V55.0893ZM260.213 61.9893H259.713V63.4465L260.608 62.2962L260.213 61.9893ZM267.313 56.3893L267.524 56.8426L267.528 56.8405L267.313 56.3893ZM276.913 54.7893C283.397 54.7893 288.594 56.8473 292.554 60.9371L293.272 60.2415C289.099 55.9312 283.629 53.7893 276.913 53.7893V54.7893ZM292.557 60.9399C296.507 64.955 298.513 70.6144 298.513 77.9893H299.513C299.513 70.4308 297.452 64.4902 293.269 60.2386L292.557 60.9399ZM298.513 77.9893V110.489H299.513V77.9893H298.513ZM299.013 109.989H285.013V110.989H299.013V109.989ZM285.513 110.489V79.8893H284.513V110.489H285.513ZM285.513 79.8893C285.513 75.4098 284.392 71.9023 282.077 69.4463L281.349 70.1323C283.434 72.3429 284.513 75.5687 284.513 79.8893H285.513ZM282.082 69.4514C279.771 66.9306 276.627 65.6893 272.713 65.6893V66.6893C276.398 66.6893 279.255 67.8479 281.344 70.1271L282.082 69.4514ZM272.713 65.6893C268.734 65.6893 265.527 66.9287 263.149 69.4459L263.876 70.1326C266.032 67.8498 268.958 66.6893 272.713 66.6893V65.6893ZM263.149 69.4463C260.834 71.9023 259.713 75.4098 259.713 79.8893H260.713C260.713 75.5687 261.792 72.3429 263.877 70.1323L263.149 69.4463ZM259.713 79.8893V110.489H260.713V79.8893H259.713ZM260.213 109.989H246.213V110.989H260.213V109.989ZM246.713 110.489V55.0893H245.713V110.489H246.713ZM246.213 55.5893H260.213V54.5893H246.213V55.5893ZM259.713 55.0893V61.9893H260.713V55.0893H259.713ZM260.608 62.2962C262.424 59.9615 264.726 58.1438 267.524 56.8426L267.102 55.9359C264.166 57.3014 261.736 59.217 259.818 61.6823L260.608 62.2962ZM267.528 56.8405C270.39 55.4747 273.516 54.7893 276.913 54.7893V53.7893C273.377 53.7893 270.103 54.5038 267.098 55.938L267.528 56.8405ZM345.126 110.489L344.735 110.801L344.885 110.989H345.126V110.489ZM326.326 86.8893L326.717 86.5777L325.826 85.4591V86.8893H326.326ZM326.326 110.489V110.989H326.826V110.489H326.326ZM312.326 110.489H311.826V110.989H312.326V110.489ZM312.326 36.4893V35.9893H311.826V36.4893H312.326ZM326.326 36.4893H326.826V35.9893H326.326V36.4893ZM326.326 78.5893H325.826V80.0266L326.718 78.8996L326.326 78.5893ZM344.926 55.0893V54.5893H344.684L344.534 54.7789L344.926 55.0893ZM363.126 55.0893L363.502 55.4191L364.23 54.5893H363.126V55.0893ZM338.726 82.8893L338.35 82.5594L338.059 82.8918L338.353 83.2219L338.726 82.8893ZM363.326 110.489V110.989H364.442L363.7 110.157L363.326 110.489ZM345.517 110.178L326.717 86.5777L325.935 87.2008L344.735 110.801L345.517 110.178ZM325.826 86.8893V110.489H326.826V86.8893H325.826ZM326.326 109.989H312.326V110.989H326.326V109.989ZM312.826 110.489V36.4893H311.826V110.489H312.826ZM312.326 36.9893H326.326V35.9893H312.326V36.9893ZM325.826 36.4893V78.5893H326.826V36.4893H325.826ZM326.718 78.8996L345.318 55.3996L344.534 54.7789L325.934 78.2789L326.718 78.8996ZM344.926 55.5893H363.126V54.5893H344.926V55.5893ZM362.75 54.7594L338.35 82.5594L339.102 83.2191L363.502 55.4191L362.75 54.7594ZM338.353 83.2219L362.953 110.822L363.7 110.157L339.1 82.5566L338.353 83.2219ZM363.326 109.989H345.126V110.989H363.326V109.989Z"
      fill="#FFFFFF"
      stroke="#FF5623"
    />
  </svg>