<svg width="56" height="57" viewBox="0 0 56 57" fill="none" xmlns="http://www.w3.org/2000/svg">
<circle cx="28" cy="28.7915" r="28" fill="#EFD7A6"/>
<circle cx="28" cy="28.7915" r="12.2756" stroke="black" stroke-width="1.4"/>
<path d="M27.1214 34.5642V21.837H27.9368V34.5642H27.1214ZM29.6719 25.7844C29.6188 25.3138 29.4001 24.9492 29.0156 24.6907C28.6312 24.4288 28.1473 24.2979 27.5639 24.2979C27.1463 24.2979 26.785 24.3642 26.4801 24.4968C26.1752 24.626 25.9382 24.805 25.7692 25.0337C25.6035 25.2591 25.5206 25.5159 25.5206 25.8043C25.5206 26.0462 25.5769 26.255 25.6896 26.4307C25.8056 26.6064 25.9564 26.7539 26.142 26.8732C26.331 26.9892 26.5331 27.087 26.7486 27.1665C26.964 27.2427 27.1712 27.3057 27.37 27.3554L28.3643 27.6139C28.6892 27.6935 29.0223 27.8012 29.3636 27.9371C29.705 28.073 30.0215 28.252 30.3132 28.474C30.6049 28.6961 30.8402 28.9712 31.0192 29.2993C31.2015 29.6274 31.2926 30.0202 31.2926 30.4776C31.2926 31.0543 31.1435 31.5664 30.8452 32.0138C30.5502 32.4612 30.121 32.8142 29.5575 33.0728C28.9974 33.3313 28.3196 33.4605 27.5241 33.4605C26.7618 33.4605 26.1023 33.3396 25.5455 33.0976C24.9886 32.8557 24.5528 32.5126 24.2379 32.0685C23.9231 31.621 23.7491 31.0907 23.7159 30.4776H25.2571C25.2869 30.8455 25.4063 31.1521 25.6151 31.3973C25.8272 31.6393 26.0973 31.8199 26.4254 31.9392C26.7569 32.0552 27.1198 32.1132 27.5142 32.1132C27.9484 32.1132 28.3345 32.0453 28.6726 31.9094C29.014 31.7702 29.2824 31.578 29.478 31.3327C29.6735 31.0841 29.7713 30.7941 29.7713 30.4627C29.7713 30.1611 29.6851 29.9141 29.5128 29.7219C29.3438 29.5297 29.1134 29.3706 28.8217 29.2446C28.5334 29.1187 28.2069 29.0076 27.8423 28.9115L26.6392 28.5834C25.8239 28.3613 25.1776 28.0349 24.7003 27.604C24.2263 27.1731 23.9893 26.6031 23.9893 25.8938C23.9893 25.3071 24.1484 24.7951 24.4666 24.3576C24.7848 23.9201 25.2157 23.5803 25.7592 23.3384C26.3028 23.0931 26.916 22.9705 27.5987 22.9705C28.2881 22.9705 28.8963 23.0915 29.4233 23.3334C29.9536 23.5754 30.3712 23.9085 30.6761 24.3327C30.9811 24.7536 31.1402 25.2375 31.1534 25.7844H29.6719Z" fill="#251A1A"/>
</svg>
