<svg width="302" height="345" viewBox="0 0 302 345" fill="none" xmlns="http://www.w3.org/2000/svg">
<g clip-path="url(#clip0_326_2425)">
<path d="M144.771 323.652L144.388 314.997C144.348 314.975 144.308 314.954 144.268 314.933C140.158 312.769 135.447 316.687 136.759 321.155C137.995 325.359 138.825 329.891 141.086 333.571C142.422 335.708 144.22 337.516 146.347 338.861C148.474 340.206 150.876 341.054 153.373 341.341L158.596 344.55C159.312 340.541 159.154 336.424 158.133 332.482C157.111 328.54 155.25 324.868 152.678 321.717C151.217 319.964 149.542 318.403 147.693 317.07C146.442 320.379 144.771 323.652 144.771 323.652Z" fill="#F2F2F2"/>
<path d="M98.0151 235.813C87.9608 225.407 73.3906 219.44 58.0406 219.44L57.4485 219.442C47.3379 219.445 37.4076 216.754 28.6734 211.643L27.7646 211.112L28.4966 210.355C32.4596 206.241 35.7688 201.539 38.3081 196.415C36.5046 198.103 34.3536 199.372 32.0073 200.132C29.661 200.893 27.1768 201.127 24.7304 200.817C22.1477 200.508 19.6682 199.616 17.478 198.208C15.2877 196.801 13.4436 194.913 12.0839 192.688C6.71888 183.953 0.32373 171.558 0.32373 162.116C0.332082 154.135 1.99736 146.243 5.21344 138.943C8.42951 131.644 13.1258 125.097 19.003 119.719C22.7238 116.353 25.6957 112.237 27.7251 107.64C29.7544 103.044 30.7956 98.0696 30.7808 93.0421L30.7778 92.3266C30.7768 85.7076 31.5829 79.1134 33.178 72.6908L33.3399 72.0423L34.0049 72.0656C38.2929 72.212 42.5833 71.8513 46.7873 70.991C42.8439 70.5056 38.9862 69.476 35.3237 67.9313L34.6083 67.6409L34.8511 66.9053C51.5861 56.5074 89.3618 61.892 111.288 11.5508C129.067 -29.269 191.798 47.7866 191.798 92.3266C191.798 96.8714 187.316 102.877 190.671 105.881C226.942 138.353 201.915 159.205 194.025 180.186C192.153 185.165 196.212 190.63 196.212 196.015C196.212 196.929 196.189 197.873 196.143 198.819L196.073 200.274L194.864 199.467C192.471 197.894 190.254 196.069 188.249 194.022C190.329 198.825 191.309 204.036 191.117 209.27C190.926 214.503 189.567 219.628 187.142 224.265C183.341 231.464 179.663 236.618 176.212 239.583C165.156 249.078 150.903 253.975 136.368 253.274C121.833 252.574 108.113 246.327 98.0151 235.813Z" fill="#E6E6E6"/>
<path d="M158.74 344.123C158.987 344.122 159.226 344.033 159.413 343.87C159.599 343.707 159.721 343.483 159.756 343.237C159.8 342.929 164.075 311.988 160.235 270.867C156.689 232.89 145.302 178.19 111.191 133.265C111.109 133.158 111.007 133.067 110.89 132.999C110.773 132.93 110.645 132.886 110.511 132.868C110.377 132.849 110.241 132.858 110.11 132.892C109.98 132.927 109.857 132.987 109.75 133.069C109.642 133.151 109.552 133.254 109.484 133.371C109.417 133.488 109.372 133.618 109.354 133.752C109.336 133.886 109.345 134.023 109.38 134.154C109.414 134.285 109.474 134.408 109.556 134.515C143.373 179.052 154.669 233.35 158.19 271.059C162.007 311.941 157.765 342.641 157.722 342.946C157.701 343.093 157.712 343.242 157.754 343.383C157.796 343.525 157.867 343.656 157.964 343.768C158.06 343.879 158.18 343.968 158.314 344.03C158.448 344.091 158.593 344.123 158.74 344.123Z" fill="#3F3D56"/>
<path d="M130.903 196.633C131.12 196.633 131.332 196.565 131.507 196.437C131.683 196.309 131.814 196.128 131.881 195.921C131.948 195.714 131.948 195.491 131.881 195.284C131.814 195.077 131.683 194.896 131.508 194.768C131.384 194.678 118.905 185.655 100.249 178.8C83.0031 172.464 56.7779 166.72 29.7796 175.343C29.6508 175.384 29.5314 175.45 29.428 175.537C29.3247 175.624 29.2396 175.731 29.1774 175.852C29.1153 175.972 29.0774 176.103 29.066 176.238C29.0545 176.373 29.0697 176.509 29.1106 176.638C29.1516 176.768 29.2175 176.887 29.3046 176.991C29.3917 177.094 29.4983 177.18 29.6183 177.242C29.7383 177.304 29.8694 177.342 30.0039 177.353C30.1385 177.364 30.274 177.349 30.4026 177.308C56.8478 168.862 82.5976 174.511 99.5426 180.737C117.932 187.493 130.178 196.348 130.3 196.436C130.475 196.564 130.686 196.633 130.903 196.633Z" fill="#3F3D56"/>
<path d="M177.922 79.1158C177.938 78.8986 177.885 78.6819 177.771 78.4969C177.656 78.3119 177.486 78.168 177.285 78.0859C177.084 78.0038 176.863 77.9876 176.652 78.0398C176.441 78.0919 176.252 78.2096 176.112 78.3761C176.014 78.4935 166.147 90.3339 157.99 108.513C150.451 125.318 142.853 151.153 149.479 178.796C149.543 179.062 149.709 179.292 149.942 179.434C150.174 179.577 150.453 179.621 150.718 179.558C150.983 179.494 151.212 179.327 151.354 179.094C151.496 178.86 151.54 178.58 151.477 178.314C144.987 151.237 152.456 125.871 159.864 109.359C167.904 91.4399 177.586 79.8205 177.683 79.7052C177.823 79.5391 177.907 79.3327 177.922 79.1158Z" fill="#3F3D56"/>
<path d="M176.532 132.274C177.399 139.292 182.245 145.078 189.292 145.078C192.676 145.078 195.921 143.729 198.314 141.328C200.707 138.927 202.051 135.67 202.051 132.274C202.051 125.203 196.308 120.124 189.292 119.47C181.847 118.776 175.419 123.264 176.532 132.274Z" fill="#2F2E41"/>
<path d="M195.201 338.483L200.06 338.483L202.371 319.676L195.2 319.676L195.201 338.483Z" fill="#FFB6B6"/>
<path d="M195.03 343.57L209.972 343.569V343.379C209.972 341.832 209.359 340.347 208.269 339.253C207.178 338.158 205.699 337.543 204.156 337.543L201.427 335.466L196.334 337.544L195.03 337.544L195.03 343.57Z" fill="#2F2E41"/>
<path d="M176.062 338.483L180.921 338.483L183.232 319.676L176.061 319.676L176.062 338.483Z" fill="#FFB6B6"/>
<path d="M175.891 343.57L190.833 343.569V343.379C190.833 341.832 190.22 340.347 189.129 339.253C188.039 338.158 186.56 337.543 185.017 337.543L182.288 335.466L177.195 337.544L175.891 337.544L175.891 343.57Z" fill="#2F2E41"/>
<path d="M211.922 220.691L215.357 232.51L211.31 282.566C211.31 282.566 213.394 285.696 211.922 285.696C210.45 285.696 208.562 286.39 209.751 288.259C210.94 290.128 206.875 296.838 206.875 296.838L201.125 332.479L193.799 332.371C193.799 332.371 190.074 330.289 192.165 328.183C194.255 326.077 195.727 326.077 193.764 324.108C191.801 322.138 191.801 322.731 191.801 321.203C191.801 319.675 189.835 301.005 194.499 293.842L193.093 264.642L189.783 293.284L182.968 331.495L175.91 331.436C175.91 331.436 172.65 328.283 172.656 325.949C172.662 323.615 174.67 323.421 173.176 322.041C171.681 320.66 171.681 299.453 176.097 287.665C176.097 287.665 178.596 281.079 176.092 278.822C173.588 276.566 176.089 273.983 176.089 273.983C176.089 273.983 180.055 272.545 176.085 268.399C172.115 264.254 176.064 234.937 176.064 234.937C176.064 234.937 171.724 223.103 176.119 218.449C180.514 213.796 211.922 220.691 211.922 220.691Z" fill="#2F2E41"/>
<path d="M150.738 241.054L156.867 226.19L161.696 228.882L158.78 244.002C159.072 244.96 159.092 245.981 158.838 246.949C158.584 247.918 158.065 248.796 157.341 249.486C156.616 250.175 155.714 250.648 154.737 250.851C153.759 251.054 152.745 250.979 151.807 250.636C150.87 250.292 150.046 249.692 149.429 248.905C148.813 248.117 148.427 247.172 148.316 246.177C148.205 245.181 148.373 244.174 148.801 243.269C149.229 242.364 149.9 241.597 150.738 241.054Z" fill="#FFB6B6"/>
<path d="M253.586 123.517L244.26 136.601L240.165 132.881L246.419 118.817C246.351 117.818 246.562 116.819 247.028 115.933C247.495 115.047 248.198 114.31 249.059 113.803C249.92 113.297 250.905 113.041 251.903 113.066C252.901 113.09 253.873 113.393 254.708 113.942C255.544 114.49 256.211 115.261 256.634 116.168C257.056 117.076 257.219 118.083 257.102 119.078C256.985 120.073 256.595 121.016 255.973 121.8C255.352 122.584 254.525 123.179 253.586 123.517Z" fill="#FFB6B6"/>
<path d="M212.847 221.902C218.896 231.317 188.491 243.265 176.824 238.469C174.781 237.629 167.754 234.854 172.558 231.008C177.361 227.162 172.001 226.62 171.874 224.117C171.789 222.443 173.081 218.77 171.733 218.928C170.386 219.085 168.809 216.77 171.743 215.774C174.678 214.778 171.775 213.869 171.801 212.924C172.081 202.604 179.971 186.19 179.971 186.19L165.754 222.66C165.754 222.66 165.859 228.969 164.046 227.041C162.233 225.113 162.365 231.354 162.365 231.354C162.365 231.354 159.669 233.242 161.219 234.292C162.769 235.343 159.55 238.574 159.55 238.574L152.038 238.035C152.038 238.035 152.156 232.436 153.439 231.197C154.721 229.959 154.091 228.01 154.091 228.01C154.091 228.01 157.431 225.044 155.192 222.635C152.313 219.538 162.81 167.219 166.433 167.737C166.945 165.235 168.137 162.925 169.876 161.06C171.615 159.196 173.834 157.851 176.287 157.173L184.4 154.931L185.841 149.195H197.265L199.255 152.964L207.94 156.897C209.576 154.581 210.798 152.14 217.497 151.349C217.497 151.349 235.548 134.868 234.667 133.581C233.786 132.294 236.584 129.281 236.584 129.281C236.584 129.281 238.973 128.496 237.625 128.077C236.276 127.658 238.825 126.689 238.825 126.689C238.825 126.689 241.186 126.067 240.073 125.247C238.959 124.428 243.788 123.889 243.788 123.889L250.054 129.019L248.787 131.174C248.787 131.174 249.559 134.108 248.552 133.037C247.544 131.966 247.354 135.074 247.354 135.074C247.354 135.074 246.84 138.478 243.788 139.503C240.737 140.529 238.423 150.272 238.423 150.272C231.226 159.662 222.733 166.987 212.668 171.809C216.591 176.327 212.847 221.902 212.847 221.902Z" fill="#6C63FF"/>
<path d="M190.702 145.838C196.951 145.838 202.016 140.755 202.016 134.484C202.016 128.214 196.951 123.13 190.702 123.13C184.453 123.13 179.387 128.214 179.387 134.484C179.387 140.755 184.453 145.838 190.702 145.838Z" fill="#FFB6B6"/>
<path d="M178.986 135.721C179.344 138.189 181.44 141.631 180.949 141.631C180.458 141.631 176.969 131.46 180.458 130.797C182.989 130.316 183.555 130.738 185.92 129.708L185.586 130.023C187.152 131.166 189.331 130.462 191.117 129.718C192.908 128.979 195.082 128.275 196.653 129.413C197.639 130.127 198.056 131.368 198.67 132.422C199.283 133.481 200.417 134.48 201.585 134.155C202.522 133.894 203.062 132.84 203.057 131.865C203.052 130.89 201.787 129.963 202.213 129.088C203.476 126.495 202.34 124.728 199.587 123.508C198.586 123.356 197.585 123.2 196.584 123.04C197.109 122.311 197.745 121.67 198.468 121.139C198.163 120.353 197.634 119.673 196.947 119.184C196.147 118.707 195.156 118.741 194.228 118.79C192.157 118.899 190.088 119.007 188.02 119.115C186.489 119.194 184.904 119.288 183.535 119.992C181.827 120.874 180.708 122.592 179.894 124.34C178.068 128.27 178.358 131.432 178.986 135.721Z" fill="#2F2E41"/>
<path d="M131.918 344.849L243.195 345C243.35 345 243.498 344.938 243.608 344.828C243.718 344.718 243.779 344.569 243.779 344.414C243.779 344.258 243.718 344.109 243.608 343.999C243.498 343.889 243.35 343.827 243.195 343.827L131.918 343.676C131.763 343.676 131.615 343.738 131.505 343.848C131.396 343.958 131.334 344.107 131.334 344.262C131.334 344.418 131.396 344.567 131.505 344.677C131.615 344.787 131.763 344.849 131.918 344.849Z" fill="#CACACA"/>
<path d="M91.6724 293.736C91.8775 292.321 90.4008 290.934 88.3741 290.638C86.3473 290.342 84.538 291.249 84.3329 292.664C84.1277 294.079 85.6045 295.466 87.6312 295.762C89.658 296.057 91.4672 295.15 91.6724 293.736Z" fill="#E6E6E6"/>
<path d="M115.803 291.373C116.008 289.958 114.531 288.571 112.505 288.275C110.478 287.979 108.669 288.886 108.463 290.301C108.258 291.716 109.735 293.103 111.762 293.399C113.789 293.695 115.598 292.787 115.803 291.373Z" fill="#3F3D56"/>
<path d="M85.0646 274.131C85.2697 272.717 83.793 271.33 81.7663 271.034C79.7395 270.738 77.9302 271.645 77.7251 273.06C77.5199 274.475 78.9966 275.861 81.0234 276.157C83.0501 276.453 84.8594 275.546 85.0646 274.131Z" fill="#FF6584"/>
<path d="M74.5792 266.101C74.589 264.802 73.867 263.744 72.9666 263.737C72.0662 263.73 71.3283 264.778 71.3185 266.077C71.3087 267.376 72.0307 268.434 72.9312 268.441C73.8316 268.448 74.5695 267.4 74.5792 266.101Z" fill="#E6E6E6"/>
<path d="M71.0234 251.145C71.0332 249.846 70.3112 248.787 69.4108 248.78C68.5104 248.774 67.7725 249.821 67.7627 251.12C67.7529 252.419 68.4749 253.477 69.3754 253.484C70.2758 253.491 71.0136 252.443 71.0234 251.145Z" fill="#3F3D56"/>
<path d="M98.6745 277.468C98.6843 276.169 97.9624 275.11 97.0619 275.103C96.1615 275.097 95.4236 276.144 95.4138 277.443C95.4041 278.742 96.1261 279.8 97.0265 279.807C97.9269 279.814 98.6648 278.766 98.6745 277.468Z" fill="#E6E6E6"/>
<path d="M87.0135 283.31C87.0233 282.011 86.3013 280.953 85.4009 280.946C84.5005 280.939 83.7626 281.986 83.7528 283.285C83.743 284.584 84.465 285.643 85.3654 285.65C86.2659 285.656 87.0038 284.609 87.0135 283.31Z" fill="#FF6584"/>
<path d="M103.246 294.109C103.256 292.81 102.534 291.751 101.633 291.744C100.733 291.738 99.9952 292.785 99.9854 294.084C99.9756 295.383 100.698 296.441 101.598 296.448C102.498 296.455 103.236 295.408 103.246 294.109Z" fill="#3F3D56"/>
<path d="M277.174 217.896C277.379 216.481 275.903 215.095 273.876 214.799C271.849 214.503 270.04 215.41 269.835 216.825C269.629 218.24 271.106 219.626 273.133 219.922C275.16 220.218 276.969 219.311 277.174 217.896Z" fill="#E6E6E6"/>
<path d="M301.305 215.533C301.51 214.119 300.033 212.732 298.006 212.436C295.98 212.14 294.17 213.047 293.965 214.462C293.76 215.877 295.237 217.263 297.263 217.559C299.29 217.855 301.1 216.948 301.305 215.533Z" fill="#3F3D56"/>
<path d="M270.566 198.292C270.771 196.877 269.294 195.491 267.268 195.195C265.241 194.899 263.432 195.806 263.226 197.221C263.021 198.635 264.498 200.022 266.525 200.318C268.551 200.614 270.361 199.707 270.566 198.292Z" fill="#FF6584"/>
<path d="M260.081 190.262C260.091 188.963 259.369 187.905 258.468 187.898C257.568 187.891 256.83 188.939 256.82 190.237C256.81 191.536 257.532 192.595 258.433 192.602C259.333 192.608 260.071 191.561 260.081 190.262Z" fill="#E6E6E6"/>
<path d="M256.525 175.305C256.535 174.006 255.813 172.948 254.913 172.941C254.012 172.934 253.274 173.982 253.264 175.28C253.255 176.579 253.977 177.638 254.877 177.645C255.777 177.652 256.515 176.604 256.525 175.305Z" fill="#3F3D56"/>
<path d="M284.176 201.628C284.186 200.329 283.464 199.271 282.564 199.264C281.663 199.257 280.925 200.305 280.916 201.604C280.906 202.902 281.628 203.961 282.528 203.968C283.429 203.975 284.166 202.927 284.176 201.628Z" fill="#E6E6E6"/>
<path d="M272.515 207.471C272.525 206.172 271.803 205.114 270.903 205.107C270.002 205.1 269.264 206.147 269.255 207.446C269.245 208.745 269.967 209.804 270.867 209.81C271.768 209.817 272.505 208.77 272.515 207.471Z" fill="#FF6584"/>
<path d="M288.748 218.269C288.758 216.971 288.036 215.912 287.135 215.905C286.235 215.898 285.497 216.946 285.487 218.245C285.477 219.544 286.199 220.602 287.1 220.609C288 220.616 288.738 219.568 288.748 218.269Z" fill="#3F3D56"/>
<path d="M187.368 77.5445C187.573 76.1296 186.096 74.7428 184.069 74.4469C182.043 74.1509 180.233 75.058 180.028 76.4728C179.823 77.8877 181.3 79.2746 183.326 79.5705C185.353 79.8664 187.163 78.9593 187.368 77.5445Z" fill="white"/>
<path d="M211.498 75.1817C211.703 73.7669 210.227 72.38 208.2 72.0841C206.173 71.7882 204.364 72.6952 204.159 74.1101C203.954 75.5249 205.43 76.9118 207.457 77.2077C209.484 77.5036 211.293 76.5965 211.498 75.1817Z" fill="#3F3D56"/>
<path d="M180.76 57.9405C180.965 56.5256 179.488 55.1388 177.462 54.8429C175.435 54.5469 173.626 55.454 173.42 56.8688C173.215 58.2837 174.692 59.6706 176.719 59.9665C178.745 60.2624 180.555 59.3553 180.76 57.9405Z" fill="#FF6584"/>
<path d="M170.275 49.9104C170.284 48.6116 169.562 47.5531 168.662 47.5462C167.761 47.5394 167.024 48.5868 167.014 49.8857C167.004 51.1846 167.726 52.2431 168.626 52.2499C169.527 52.2568 170.265 51.2093 170.275 49.9104Z" fill="#E6E6E6"/>
<path d="M166.719 34.9535C166.729 33.6547 166.007 32.5962 165.106 32.5893C164.206 32.5825 163.468 33.6299 163.458 34.9288C163.448 36.2277 164.17 37.2862 165.071 37.293C165.971 37.2998 166.709 36.2524 166.719 34.9535Z" fill="#3F3D56"/>
<path d="M194.37 61.2765C194.38 59.9777 193.658 58.9192 192.757 58.9123C191.857 58.9055 191.119 59.9529 191.109 61.2518C191.099 62.5507 191.821 63.6092 192.722 63.616C193.622 63.6228 194.36 62.5754 194.37 61.2765Z" fill="#E6E6E6"/>
<path d="M182.709 67.1192C182.719 65.8203 181.997 64.7618 181.096 64.755C180.196 64.7482 179.458 65.7956 179.448 67.0944C179.438 68.3933 180.16 69.4518 181.061 69.4587C181.961 69.4655 182.699 68.4181 182.709 67.1192Z" fill="#FF6584"/>
<path d="M198.941 77.9178C198.951 76.6189 198.229 75.5604 197.329 75.5536C196.428 75.5468 195.69 76.5941 195.681 77.893C195.671 79.1919 196.393 80.2504 197.293 80.2572C198.194 80.2641 198.932 79.2167 198.941 77.9178Z" fill="#3F3D56"/>
</g>
<defs>
<clipPath id="clip0_326_2425">
<rect width="301.352" height="345" fill="white" transform="translate(0.32373)"/>
</clipPath>
</defs>
</svg>
