<?xml version="1.0" encoding="utf-8"?>
<!-- Generator: Adobe Illustrator 23.0.1, SVG Export Plug-In . SVG Version: 6.00 Build 0)  -->
<svg version="1.1" xmlns="http://www.w3.org/2000/svg" xmlns:xlink="http://www.w3.org/1999/xlink" x="0px" y="0px"
	 viewBox="0 0 500 500" style="enable-background:new 0 0 500 500;" xml:space="preserve">
<style type="text/css">
	.st0{display:none;}
	.st1{display:inline;fill:#FF5623;}
	.st2{display:inline;}
	.st3{font-family:'Poppins-SemiBold';}
	.st4{font-size:72px;}
	.st5{fill:#FF5623;stroke:#FFFFFF;stroke-miterlimit:10;}
	.st6{font-size:100px;}
	.st7{fill:#323232;}
	.st8{fill:#FFFFFF;stroke:#4DAF53;stroke-miterlimit:10;}
	.st9{fill:#4DAF53;}
</style>
<g id="Lager_1">
</g>
<g id="Lager_7" class="st0">
	<rect class="st1" width="500" height="500"/>
</g>
<g id="Lager_3" class="st0">
	<text transform="matrix(1 0 0 1 121.0552 213.7031)" class="st2 st3 st4">Lia Link</text>
</g>
<g id="Lager_6" class="st0">
	<g class="st2">
		<g>
			<path class="st5" d="M248.51,190.69h-13.01c-3.96,0-7.35,4.36-8.73,10.51c-1.51-6.15-5.21-10.51-9.54-10.51h-14.21
				c-5.66,0-10.27,7.48-10.27,16.67s4.61,16.67,10.27,16.67h14.21c4.32,0,8.02-4.36,9.54-10.51c1.39,6.15,4.78,10.51,8.73,10.51
				h13.01c5.19,0,9.41-7.48,9.41-16.67S253.69,190.69,248.51,190.69z M248.51,216.83h-13.01c-1.66,0-3.15-1.35-4.13-3.47h-4.56
				h-0.08h-4.99c-1.07,2.12-2.69,3.47-4.51,3.47h-14.21c-3.22,0-5.83-4.25-5.83-9.47c0-5.22,2.62-9.47,5.83-9.47h14.21
				c1.81,0,3.44,1.35,4.51,3.47h4.99h0.08h4.56c0.98-2.12,2.47-3.47,4.13-3.47h13.01c2.95,0,5.34,4.25,5.34,9.47
				C253.85,212.58,251.45,216.83,248.51,216.83z"/>
			<path class="st5" d="M241,203.76h-30.8c-1.99,0-3.6,1.61-3.6,3.6s1.61,3.6,3.6,3.6H241c1.99,0,3.6-1.61,3.6-3.6
				S242.99,203.76,241,203.76z"/>
		</g>
		<text transform="matrix(1 0 0 1 72.2363 235.083)" class="st5 st3 st6">Lia</text>
		<text transform="matrix(1 0 0 1 237.5825 235.4893)" class="st5 st3 st6">Link</text>
	</g>
	<g class="st2">
		<g>
			<path class="st7" d="M248.51,96.69h-13.01c-3.96,0-7.35,4.36-8.73,10.51c-1.51-6.15-5.21-10.51-9.54-10.51h-14.21
				c-5.66,0-10.27,7.48-10.27,16.67s4.61,16.67,10.27,16.67h14.21c4.32,0,8.02-4.36,9.54-10.51c1.39,6.15,4.78,10.51,8.73,10.51
				h13.01c5.19,0,9.41-7.48,9.41-16.67S253.69,96.69,248.51,96.69z M248.51,122.83h-13.01c-1.66,0-3.15-1.35-4.13-3.47h-4.56h-0.08
				h-4.99c-1.07,2.12-2.69,3.47-4.51,3.47h-14.21c-3.22,0-5.83-4.25-5.83-9.47c0-5.22,2.62-9.47,5.83-9.47h14.21
				c1.81,0,3.44,1.35,4.51,3.47h4.99h0.08h4.56c0.98-2.12,2.47-3.47,4.13-3.47h13.01c2.95,0,5.34,4.25,5.34,9.47
				C253.85,118.58,251.45,122.83,248.51,122.83z"/>
			<path class="st7" d="M241,109.76h-30.8c-1.99,0-3.6,1.61-3.6,3.6s1.61,3.6,3.6,3.6H241c1.99,0,3.6-1.61,3.6-3.6
				S242.99,109.76,241,109.76z"/>
		</g>
		<text transform="matrix(1 0 0 1 72.2363 141.083)" class="st7 st3 st6">Lia</text>
		<text transform="matrix(1 0 0 1 237.5825 141.4893)" class="st7 st3 st6">Link</text>
	</g>
	<g class="st2">
		<g>
			<path class="st8" d="M248.51,295.69h-13.01c-3.96,0-7.35,4.36-8.73,10.51c-1.51-6.15-5.21-10.51-9.54-10.51h-14.21
				c-5.66,0-10.27,7.48-10.27,16.67s4.61,16.67,10.27,16.67h14.21c4.32,0,8.02-4.36,9.54-10.51c1.39,6.15,4.78,10.51,8.73,10.51
				h13.01c5.19,0,9.41-7.48,9.41-16.67S253.69,295.69,248.51,295.69z M248.51,321.83h-13.01c-1.66,0-3.15-1.35-4.13-3.47h-4.56
				h-0.08h-4.99c-1.07,2.12-2.69,3.47-4.51,3.47h-14.21c-3.22,0-5.83-4.25-5.83-9.47c0-5.22,2.62-9.47,5.83-9.47h14.21
				c1.81,0,3.44,1.35,4.51,3.47h4.99h0.08h4.56c0.98-2.12,2.47-3.47,4.13-3.47h13.01c2.95,0,5.34,4.25,5.34,9.47
				C253.85,317.58,251.45,321.83,248.51,321.83z"/>
			<path class="st8" d="M241,308.76h-30.8c-1.99,0-3.6,1.61-3.6,3.6s1.61,3.6,3.6,3.6H241c1.99,0,3.6-1.61,3.6-3.6
				S242.99,308.76,241,308.76z"/>
		</g>
		<text transform="matrix(1 0 0 1 72.2363 340.083)" class="st8 st3 st6">Lia</text>
		<text transform="matrix(1 0 0 1 237.5825 340.4893)" class="st8 st3 st6">Link</text>
	</g>
	<g class="st2">
		<g>
			<path class="st9" d="M248.51,387.69h-13.01c-3.96,0-7.35,4.36-8.73,10.51c-1.51-6.15-5.21-10.51-9.54-10.51h-14.21
				c-5.66,0-10.27,7.48-10.27,16.67s4.61,16.67,10.27,16.67h14.21c4.32,0,8.02-4.36,9.54-10.51c1.39,6.15,4.78,10.51,8.73,10.51
				h13.01c5.19,0,9.41-7.48,9.41-16.67S253.69,387.69,248.51,387.69z M248.51,413.83h-13.01c-1.66,0-3.15-1.35-4.13-3.47h-4.56
				h-0.08h-4.99c-1.07,2.12-2.69,3.47-4.51,3.47h-14.21c-3.22,0-5.83-4.25-5.83-9.47c0-5.22,2.62-9.47,5.83-9.47h14.21
				c1.81,0,3.44,1.35,4.51,3.47h4.99h0.08h4.56c0.98-2.12,2.47-3.47,4.13-3.47h13.01c2.95,0,5.34,4.25,5.34,9.47
				C253.85,409.58,251.45,413.83,248.51,413.83z"/>
			<path class="st9" d="M241,400.76h-30.8c-1.99,0-3.6,1.61-3.6,3.6s1.61,3.6,3.6,3.6H241c1.99,0,3.6-1.61,3.6-3.6
				S242.99,400.76,241,400.76z"/>
		</g>
		<text transform="matrix(1 0 0 1 72.2363 432.083)" class="st9 st3 st6">Lia</text>
		<text transform="matrix(1 0 0 1 237.5825 432.4893)" class="st9 st3 st6">Link</text>
	</g>
</g>
<g id="Lager_11" class="st0">
	<g class="st2">
		<g>
			<path class="st7" d="M248.51,96.69h-13.01c-3.96,0-7.35,4.36-8.73,10.51c-1.51-6.15-5.21-10.51-9.54-10.51h-14.21
				c-5.66,0-10.27,7.48-10.27,16.67s4.61,16.67,10.27,16.67h14.21c4.32,0,8.02-4.36,9.54-10.51c1.39,6.15,4.78,10.51,8.73,10.51
				h13.01c5.19,0,9.41-7.48,9.41-16.67S253.69,96.69,248.51,96.69z M248.51,122.83h-13.01c-1.66,0-3.15-1.35-4.13-3.47h-4.56h-0.08
				h-4.99c-1.07,2.12-2.69,3.47-4.51,3.47h-14.21c-3.22,0-5.83-4.25-5.83-9.47c0-5.22,2.62-9.47,5.83-9.47h14.21
				c1.81,0,3.44,1.35,4.51,3.47h4.99h0.08h4.56c0.98-2.12,2.47-3.47,4.13-3.47h13.01c2.95,0,5.34,4.25,5.34,9.47
				C253.85,118.58,251.45,122.83,248.51,122.83z"/>
			<path class="st7" d="M241,109.76h-30.8c-1.99,0-3.6,1.61-3.6,3.6s1.61,3.6,3.6,3.6H241c1.99,0,3.6-1.61,3.6-3.6
				S242.99,109.76,241,109.76z"/>
		</g>
		<text transform="matrix(1 0 0 1 72.2363 141.083)" class="st7 st3 st6">Lia</text>
		<text transform="matrix(1 0 0 1 237.5825 141.4893)" class="st7 st3 st6">Link</text>
	</g>
</g>
<g id="Lager_10">
	<g>
		<g>
			<path class="st5" d="M248.51,188.69h-13.01c-3.96,0-7.35,4.36-8.73,10.51c-1.51-6.15-5.21-10.51-9.54-10.51h-14.21
				c-5.66,0-10.27,7.48-10.27,16.67s4.61,16.67,10.27,16.67h14.21c4.32,0,8.02-4.36,9.54-10.51c1.39,6.15,4.78,10.51,8.73,10.51
				h13.01c5.19,0,9.41-7.48,9.41-16.67S253.69,188.69,248.51,188.69z M248.51,214.83h-13.01c-1.66,0-3.15-1.35-4.13-3.47h-4.56
				h-0.08h-4.99c-1.07,2.12-2.69,3.47-4.51,3.47h-14.21c-3.22,0-5.83-4.25-5.83-9.47c0-5.22,2.62-9.47,5.83-9.47h14.21
				c1.81,0,3.44,1.35,4.51,3.47h4.99h0.08h4.56c0.98-2.12,2.47-3.47,4.13-3.47h13.01c2.95,0,5.34,4.25,5.34,9.47
				C253.85,210.58,251.45,214.83,248.51,214.83z"/>
			<path class="st5" d="M241,201.76h-30.8c-1.99,0-3.6,1.61-3.6,3.6s1.61,3.6,3.6,3.6H241c1.99,0,3.6-1.61,3.6-3.6
				S242.99,201.76,241,201.76z"/>
		</g>
		<text transform="matrix(1 0 0 1 72.2363 233.083)" class="st5 st3 st6">Lia</text>
		<text transform="matrix(1 0 0 1 237.5825 233.4893)" class="st5 st3 st6">Link</text>
	</g>
</g>
<g id="Lager_9" class="st0">
	<g class="st2">
		<g>
			<path class="st8" d="M248.51,295.69h-13.01c-3.96,0-7.35,4.36-8.73,10.51c-1.51-6.15-5.21-10.51-9.54-10.51h-14.21
				c-5.66,0-10.27,7.48-10.27,16.67s4.61,16.67,10.27,16.67h14.21c4.32,0,8.02-4.36,9.54-10.51c1.39,6.15,4.78,10.51,8.73,10.51
				h13.01c5.19,0,9.41-7.48,9.41-16.67S253.69,295.69,248.51,295.69z M248.51,321.83h-13.01c-1.66,0-3.15-1.35-4.13-3.47h-4.56
				h-0.08h-4.99c-1.07,2.12-2.69,3.47-4.51,3.47h-14.21c-3.22,0-5.83-4.25-5.83-9.47c0-5.22,2.62-9.47,5.83-9.47h14.21
				c1.81,0,3.44,1.35,4.51,3.47h4.99h0.08h4.56c0.98-2.12,2.47-3.47,4.13-3.47h13.01c2.95,0,5.34,4.25,5.34,9.47
				C253.85,317.58,251.45,321.83,248.51,321.83z"/>
			<path class="st8" d="M241,308.76h-30.8c-1.99,0-3.6,1.61-3.6,3.6s1.61,3.6,3.6,3.6H241c1.99,0,3.6-1.61,3.6-3.6
				S242.99,308.76,241,308.76z"/>
		</g>
		<text transform="matrix(1 0 0 1 72.2363 340.083)" class="st8 st3 st6">Lia</text>
		<text transform="matrix(1 0 0 1 237.5825 340.4893)" class="st8 st3 st6">Link</text>
	</g>
</g>
<g id="Lager_8" class="st0">
	<g class="st2">
		<g>
			<path class="st9" d="M248.51,387.69h-13.01c-3.96,0-7.35,4.36-8.73,10.51c-1.51-6.15-5.21-10.51-9.54-10.51h-14.21
				c-5.66,0-10.27,7.48-10.27,16.67s4.61,16.67,10.27,16.67h14.21c4.32,0,8.02-4.36,9.54-10.51c1.39,6.15,4.78,10.51,8.73,10.51
				h13.01c5.19,0,9.41-7.48,9.41-16.67S253.69,387.69,248.51,387.69z M248.51,413.83h-13.01c-1.66,0-3.15-1.35-4.13-3.47h-4.56
				h-0.08h-4.99c-1.07,2.12-2.69,3.47-4.51,3.47h-14.21c-3.22,0-5.83-4.25-5.83-9.47c0-5.22,2.62-9.47,5.83-9.47h14.21
				c1.81,0,3.44,1.35,4.51,3.47h4.99h0.08h4.56c0.98-2.12,2.47-3.47,4.13-3.47h13.01c2.95,0,5.34,4.25,5.34,9.47
				C253.85,409.58,251.45,413.83,248.51,413.83z"/>
			<path class="st9" d="M241,400.76h-30.8c-1.99,0-3.6,1.61-3.6,3.6s1.61,3.6,3.6,3.6H241c1.99,0,3.6-1.61,3.6-3.6
				S242.99,400.76,241,400.76z"/>
		</g>
		<text transform="matrix(1 0 0 1 72.2363 432.083)" class="st9 st3 st6">Lia</text>
		<text transform="matrix(1 0 0 1 237.5825 432.4893)" class="st9 st3 st6">Link</text>
	</g>
</g>
</svg>
